<svg width="131" height="50" viewBox="0 0 131 50" fill="none" xmlns="http://www.w3.org/2000/svg">
<g clip-path="url(#clip0_12_82)">
<path d="M48.0699 45.067H49.9925C50.6471 45.067 51.1484 45.3022 51.5081 45.7667C51.8266 46.19 51.9917 46.7309 51.9917 47.3895C51.9917 47.901 51.8974 48.3596 51.7087 48.7712C51.3725 49.5002 50.8005 49.8589 49.9866 49.8589H48.0699V45.067ZM49.8628 49.3062C50.081 49.3062 50.2579 49.2827 50.3935 49.2357C50.6412 49.1533 50.8417 48.9887 51.001 48.7477C51.1248 48.5536 51.2192 48.3067 51.2723 48.0009C51.3017 47.8187 51.3194 47.654 51.3194 47.5012C51.3194 46.9073 51.2015 46.4487 50.9715 46.1195C50.7415 45.7902 50.3699 45.6256 49.851 45.6256H48.7187V49.3062H49.8628Z" fill="white"/>
<path d="M56.0786 45.067V48.0303C56.0786 48.3772 56.1435 48.6653 56.2792 48.9005C56.4738 49.2474 56.804 49.4238 57.2699 49.4238C57.8243 49.4238 58.2017 49.2357 58.4022 48.8594C58.5084 48.6536 58.5615 48.3772 58.5615 48.0362V45.0729H59.222V47.7658C59.222 48.3537 59.1394 48.8064 58.9802 49.1239C58.6853 49.7001 58.131 49.9941 57.3171 49.9941C56.5033 49.9941 55.9489 49.706 55.6599 49.1239C55.5007 48.8064 55.4181 48.3537 55.4181 47.7658V45.0729H56.0786V45.067Z" fill="white"/>
<path d="M62.6189 45.067H63.5507L64.9307 49.1181L66.3048 45.067H67.2307V49.8589H66.6056V47.0308C66.6056 46.9309 66.6056 46.7721 66.6115 46.5428C66.6174 46.3194 66.6174 46.0724 66.6174 45.8137L65.2433 49.8589H64.6004L63.2145 45.8137V45.9607C63.2145 46.0783 63.2204 46.2547 63.2263 46.4958C63.2322 46.7368 63.2381 46.9132 63.2381 47.0249V49.853H62.6189V45.067Z" fill="white"/>
<path d="M70.6099 45.067H72.6858C73.252 45.067 73.653 45.2317 73.8948 45.5668C74.0363 45.7667 74.1071 45.996 74.1071 46.2547C74.1071 46.5546 74.0186 46.8074 73.8476 47.0014C73.7591 47.1014 73.6294 47.1954 73.4584 47.2836C73.7061 47.3777 73.8889 47.4835 74.0127 47.6011C74.2309 47.8128 74.3371 48.1009 74.3371 48.4654C74.3371 48.777 74.2368 49.0534 74.0422 49.3062C73.7532 49.6825 73.2874 49.8648 72.6504 49.8648H70.604V45.067H70.6099ZM72.444 47.0896C72.7212 47.0896 72.9394 47.0543 73.0927 46.9779C73.3345 46.8603 73.4584 46.6428 73.4584 46.3311C73.4584 46.0195 73.3286 45.8079 73.0691 45.6961C72.9217 45.6373 72.7094 45.6021 72.4204 45.6021H71.2468V47.0896H72.444ZM72.6622 49.3062C73.0632 49.3062 73.3522 49.1886 73.5232 48.9593C73.6294 48.8123 73.6825 48.6359 73.6825 48.4302C73.6825 48.0833 73.5232 47.8422 73.2107 47.7187C73.0456 47.654 72.8215 47.6188 72.5443 47.6188H71.2409V49.3062H72.6622Z" fill="white"/>
<path d="M81.5968 45.7491C81.9153 46.1724 82.0745 46.7133 82.0745 47.3777C82.0745 48.095 81.8917 48.6889 81.5261 49.1651C81.0955 49.7237 80.4881 50 79.6979 50C78.9548 50 78.3768 49.7589 77.9522 49.2709C77.5748 48.8006 77.3861 48.2067 77.3861 47.4894C77.3861 46.8427 77.5453 46.2841 77.8696 45.8255C78.2825 45.2317 78.8958 44.9377 79.7097 44.9377C80.5589 44.9377 81.1899 45.2081 81.5968 45.7491ZM81.0189 48.8064C81.2725 48.3949 81.4022 47.9245 81.4022 47.3895C81.4022 46.825 81.2548 46.3723 80.9599 46.0254C80.665 45.6785 80.2581 45.508 79.745 45.508C79.2497 45.508 78.8427 45.6785 78.5243 46.0195C78.2117 46.3605 78.0525 46.8603 78.0525 47.5247C78.0525 48.0539 78.1881 48.5066 78.4594 48.8711C78.7307 49.2357 79.1671 49.4179 79.7686 49.4179C80.3525 49.4238 80.7653 49.218 81.0189 48.8064Z" fill="white"/>
<path d="M0.760773 35.2481V15.0282H8.08538C9.27076 15.0282 10.2792 15.1517 11.1285 15.3928C11.9718 15.6338 12.6618 15.9807 13.1985 16.4334C13.7351 16.8803 14.1243 17.4212 14.3661 18.0503C14.6079 18.6794 14.7318 19.3674 14.7318 20.1141C14.7318 20.8255 14.6374 21.437 14.4487 21.9544C14.26 22.4718 14.0182 22.901 13.7174 23.2479C13.4167 23.5948 13.0746 23.8652 12.6913 24.0593C12.3079 24.2533 11.9069 24.3944 11.4941 24.465V24.5238C12.9036 24.7295 13.9474 25.2822 14.6315 26.1818C15.3156 27.0814 15.6577 28.2044 15.6577 29.5508C15.6577 30.5974 15.4925 31.4852 15.1623 32.2201C14.832 32.9492 14.3779 33.5372 13.7941 33.9899C13.2102 34.4367 12.5143 34.7601 11.6946 34.96C10.8808 35.154 9.99025 35.254 9.03487 35.254H0.760773V35.2481ZM2.67744 23.9593H7.51923C8.51589 23.9593 9.34743 23.877 10.0256 23.7065C10.7038 23.536 11.2464 23.289 11.6592 22.9598C12.072 22.6305 12.3669 22.2307 12.5438 21.7545C12.7208 21.2782 12.8092 20.7314 12.8092 20.1141C12.8092 19.4791 12.7031 18.9381 12.4967 18.4972C12.2902 18.0562 11.96 17.7034 11.5118 17.433C11.0636 17.1625 10.4738 16.9626 9.75435 16.845C9.02897 16.7215 8.14435 16.6627 7.09461 16.6627H2.67154V23.9593H2.67744ZM2.67744 33.6195H7.54871C8.59846 33.6195 9.51256 33.5724 10.2969 33.4784C11.0754 33.3843 11.7182 33.1903 12.2254 32.9022C12.7326 32.6141 13.11 32.2025 13.3636 31.6674C13.6172 31.1324 13.741 30.4269 13.741 29.5449C13.741 28.7041 13.5995 28.0221 13.3164 27.5106C13.0333 26.9932 12.6323 26.5992 12.1074 26.317C11.5826 26.0348 10.9515 25.8467 10.2202 25.7408C9.48897 25.6409 8.66923 25.588 7.77282 25.588H2.67744V33.6195Z" fill="white"/>
<path d="M20.0218 35.2481H18.3292V20.702H20.0218V23.4243H20.0807C20.5525 22.266 21.1541 21.4546 21.8972 20.996C22.6402 20.5374 23.6192 20.3081 24.84 20.3081V22.1308C23.8846 22.1131 23.0943 22.2601 22.4751 22.5776C21.8559 22.8951 21.3605 23.3243 20.9948 23.8711C20.6292 24.412 20.3756 25.0529 20.2341 25.7937C20.0925 26.5346 20.0218 27.3048 20.0218 28.1103V35.2481Z" fill="white"/>
<path d="M28.5259 20.702H26.8392V35.2422H28.5259V20.702Z" fill="white"/>
<path d="M59.222 20.702H60.9145V33.8429C60.9145 34.8189 60.8143 35.7479 60.6197 36.6357C60.4251 37.5235 60.0712 38.3055 59.564 38.9817C59.0569 39.6578 58.361 40.1929 57.4822 40.5985C56.5976 40.9984 55.4653 41.2041 54.0735 41.2041C53.0061 41.2041 52.0861 41.0689 51.3135 40.7984C50.541 40.528 49.9158 40.187 49.4264 39.7754C48.9369 39.3638 48.5653 38.9111 48.3117 38.4113C48.0581 37.9175 47.9225 37.453 47.9048 37.0238H49.7094C49.8392 37.5647 50.0456 38.0115 50.3287 38.3584C50.6117 38.7053 50.942 38.9758 51.3253 39.1698C51.7087 39.3638 52.1392 39.4991 52.6051 39.5755C53.0769 39.6519 53.5605 39.6872 54.0676 39.6872C55.2117 39.6872 56.1317 39.4932 56.8276 39.0992C57.5235 38.7053 58.0484 38.1938 58.4022 37.5529C58.7561 36.9179 58.9861 36.1947 59.0922 35.3892C59.1925 34.5837 59.2397 33.7606 59.2161 32.9198C58.6735 33.8194 57.9245 34.4955 56.9751 34.9541C56.0256 35.4127 55.0348 35.642 54.0028 35.642C52.894 35.642 51.9328 35.4304 51.1189 35.0129C50.3051 34.5896 49.6269 34.031 49.0902 33.3255C48.5535 32.6258 48.1584 31.8027 47.893 30.8678C47.6276 29.933 47.4979 28.957 47.4979 27.9457C47.4979 26.8815 47.6217 25.8761 47.8635 24.9412C48.1053 24.0063 48.4946 23.195 49.0312 22.5129C49.5679 21.8309 50.2461 21.29 51.0717 20.896C51.8974 20.5021 52.8999 20.3081 54.0853 20.3081C54.5571 20.3081 55.0348 20.3728 55.5243 20.5021C56.0138 20.6315 56.4856 20.8196 56.9456 21.0666C57.4056 21.3076 57.8302 21.6192 58.2135 21.9955C58.5969 22.3718 58.9153 22.7893 59.1571 23.2596H59.2161V20.702H59.222ZM59.222 28.028C59.222 27.146 59.1158 26.3288 58.8976 25.5703C58.6794 24.8119 58.3669 24.1592 57.954 23.6065C57.5412 23.0539 57.0222 22.6188 56.403 22.3013C55.7838 21.9838 55.082 21.825 54.2917 21.825C53.5781 21.825 52.9235 21.9485 52.322 22.2013C51.7205 22.4541 51.1956 22.8246 50.7474 23.3126C50.2992 23.8006 49.9453 24.3944 49.6917 25.0941C49.4381 25.7937 49.3143 26.6051 49.3143 27.5223C49.2789 28.4396 49.3497 29.298 49.5384 30.0917C49.7271 30.8855 50.0279 31.5851 50.4407 32.1849C50.8535 32.7846 51.3784 33.2549 52.0153 33.6018C52.6522 33.9487 53.413 34.1192 54.2976 34.1192C55.0643 34.1192 55.7602 33.9546 56.3676 33.6254C56.9751 33.2961 57.494 32.861 57.9187 32.3083C58.3433 31.7556 58.6676 31.1089 58.8917 30.3739C59.1099 29.6331 59.222 28.8511 59.222 28.028Z" fill="white"/>
<path d="M65.1607 28.369C65.1607 29.1569 65.2609 29.8977 65.4733 30.6032C65.6797 31.3029 65.9863 31.9144 66.3874 32.4259C66.7884 32.9433 67.3015 33.3549 67.9207 33.6606C68.5399 33.9722 69.2535 34.1251 70.0615 34.1251C71.1702 34.1251 72.1138 33.837 72.904 33.2549C73.6943 32.6729 74.2191 31.8497 74.4786 30.7855H76.3658C76.1594 31.4793 75.8881 32.1202 75.552 32.7081C75.2158 33.2961 74.7912 33.8135 74.284 34.2545C73.7768 34.6954 73.1753 35.0365 72.4794 35.2775C71.7835 35.5186 70.9756 35.642 70.0556 35.642C68.8879 35.642 67.8853 35.448 67.042 35.0541C66.1986 34.6602 65.5027 34.1251 64.9602 33.4372C64.4176 32.7552 64.0107 31.9497 63.7512 31.0207C63.4858 30.0917 63.3561 29.0981 63.3561 28.028C63.3561 26.9638 63.5094 25.9584 63.822 25.0235C64.1345 24.0887 64.5709 23.2714 65.143 22.5658C65.715 21.8662 66.4168 21.3135 67.2425 20.9078C68.0681 20.508 69.0058 20.3022 70.0615 20.3022C72.0725 20.3022 73.6471 20.9901 74.7912 22.3659C75.9353 23.7418 76.5014 25.7408 76.4838 28.3572H65.1607V28.369ZM74.685 26.9638C74.685 26.2523 74.5848 25.5821 74.3902 24.9588C74.1956 24.3297 73.9007 23.7888 73.5174 23.3302C73.134 22.8716 72.6504 22.5071 72.0666 22.2366C71.4827 21.9661 70.8163 21.8309 70.0674 21.8309C69.3184 21.8309 68.652 21.972 68.0799 22.2542C67.5079 22.5365 67.0184 22.9069 66.6174 23.3772C66.2163 23.8476 65.892 24.3885 65.6443 25.0059C65.4025 25.6232 65.2374 26.2817 65.1666 26.9697H74.685V26.9638Z" fill="white"/>
<path d="M77.1855 20.702H79.0137L83.7435 33.1667L88.4732 20.702H90.3014L84.6399 35.2422H82.7527L77.1855 20.702Z" fill="white"/>
<path d="M91.9468 17.527V15.0282H93.8045V17.527H91.9468ZM92.0294 35.2481V20.702H93.7219V35.2422H92.0294V35.2481Z" fill="white"/>
<path d="M98.0271 28.369C98.0271 29.1569 98.1273 29.8977 98.3396 30.6032C98.546 31.3029 98.8527 31.9144 99.2537 32.4259C99.6547 32.9433 100.168 33.3549 100.787 33.6606C101.406 33.9722 102.12 34.1251 102.928 34.1251C104.037 34.1251 104.986 33.837 105.77 33.2549C106.561 32.6729 107.086 31.8497 107.345 30.7855H109.232C109.026 31.4793 108.754 32.1202 108.418 32.7081C108.082 33.2961 107.658 33.8135 107.15 34.2545C106.643 34.6954 106.042 35.0365 105.346 35.2775C104.65 35.5186 103.842 35.642 102.922 35.642C101.76 35.642 100.752 35.448 99.9083 35.0541C99.065 34.6602 98.3691 34.1251 97.8265 33.4372C97.284 32.7552 96.8771 31.9497 96.6176 31.0207C96.3522 30.0917 96.2224 29.0981 96.2224 28.028C96.2224 26.9638 96.3758 25.9584 96.6883 25.0235C96.995 24.0887 97.4373 23.2714 98.0094 22.5658C98.5814 21.8662 99.2832 21.3135 100.109 20.9078C100.934 20.508 101.872 20.3022 102.928 20.3022C104.939 20.3022 106.513 20.9901 107.658 22.3659C108.802 23.7418 109.368 25.7408 109.35 28.3572H98.0271V28.369ZM107.546 26.9638C107.546 26.2523 107.445 25.5821 107.251 24.9588C107.056 24.3297 106.761 23.7888 106.378 23.3302C105.994 22.8716 105.511 22.5071 104.927 22.2366C104.343 21.9661 103.677 21.8309 102.928 21.8309C102.179 21.8309 101.512 21.972 100.94 22.2542C100.368 22.5365 99.8788 22.9069 99.4778 23.3772C99.0768 23.8476 98.7524 24.3885 98.5047 25.0059C98.263 25.6232 98.1037 26.2817 98.0271 26.9697H107.546V26.9638Z" fill="white"/>
<path d="M123.934 33.0021L127.762 20.7079H129.478L124.748 35.2481H122.944L119.759 23.0362H119.7L116.462 35.2481H114.434L109.987 20.7079H111.68L115.454 33.1197L118.833 20.7079H120.72L123.934 33.0021Z" fill="white"/>
<path d="M0.0884552 11.3064C0.395121 11.2712 16.3713 9.3603 41.0579 9.20743V10.9831C16.5128 11.1301 0.619224 13.0292 0.30666 13.0703L0.0884552 11.3064Z" fill="white"/>
<path d="M130.481 16.9508L130.15 18.6912C97.4668 12.5 66.5348 10.9184 43.0571 10.9654V9.19567C66.6292 9.15452 97.6732 10.7361 130.481 16.9508Z" fill="white"/>
<path d="M26.7507 0V17.527H28.6084V9.77775C28.6025 9.65428 28.5966 9.53081 28.5966 9.40734C28.5966 9.30738 28.5966 9.20155 28.6084 9.1016C28.6025 9.07808 28.6025 9.06044 28.6084 9.03692C28.7971 5.22107 31.9641 2.19897 35.8328 2.19897C39.7192 2.19897 42.892 5.25635 43.0512 9.09572H43.063V23.0303C42.5146 22.1308 41.7715 21.4546 40.8279 20.996C39.8784 20.5433 38.8876 20.3081 37.8556 20.3081C36.7469 20.3081 35.7856 20.5198 34.9659 20.9431C34.152 21.3605 33.4738 21.925 32.943 22.6246C32.4064 23.3302 32.0053 24.1533 31.7459 25.0882C31.4864 26.023 31.3566 26.9932 31.3566 28.0045C31.3566 29.0746 31.4746 30.0741 31.7164 31.0089C31.9582 31.9438 32.3533 32.7552 32.8841 33.4431C33.4207 34.1251 34.0989 34.6602 34.9246 35.0541C35.7561 35.448 36.7587 35.6479 37.9382 35.6479C38.4041 35.6479 38.8876 35.5833 39.3712 35.4539C39.8607 35.3246 40.3325 35.1364 40.7925 34.8895C41.2466 34.6484 41.6771 34.3368 42.0546 33.9781C42.4379 33.6136 42.7564 33.1844 42.9982 32.7023H43.0571V35.2599H44.7497V0H26.7507ZM42.7328 30.3739C42.5205 31.1324 42.202 31.785 41.7892 32.3436C41.3823 32.8963 40.8633 33.3255 40.2382 33.643C39.6189 33.9605 38.9171 34.1251 38.1269 34.1251C37.4133 34.1251 36.7587 34.0016 36.1571 33.7488C35.5556 33.496 35.0307 33.1256 34.5766 32.6376C34.1284 32.1555 33.7746 31.5616 33.521 30.8561C33.2733 30.1505 33.1435 29.345 33.1435 28.4219C33.1082 27.5106 33.1848 26.6522 33.3676 25.8525C33.5564 25.0588 33.863 24.3591 34.27 23.7653C34.6828 23.1597 35.2076 22.6952 35.8505 22.3424C36.4933 22.0014 37.2482 21.8191 38.1269 21.8191C38.8994 21.8191 39.5894 21.9838 40.1969 22.313C40.8102 22.6423 41.3233 23.0833 41.7479 23.6301C42.1666 24.1886 42.4969 24.8295 42.721 25.5703C42.9451 26.3111 43.0571 27.0931 43.0571 27.9104C43.0571 28.7982 42.951 29.6155 42.7328 30.3739Z" fill="white"/>
<path d="M44.7497 47.5247H0.0884552V47.9892H44.7497V47.5247Z" fill="white"/>
<path d="M129.048 47.5247H84.3863V47.9892H129.048V47.5247Z" fill="white"/>
</g>
<defs>
<clipPath id="clip0_12_82">
<rect width="130.392" height="50" fill="white"/>
</clipPath>
</defs>
</svg>
