<svg width="90" height="60" viewBox="0 0 90 60" fill="none" xmlns="http://www.w3.org/2000/svg">
<path d="M90 0V53.4414H51.3675L45 59.8089L38.6325 53.4414H0V0H90Z" fill="#97301F"/>
<g clip-path="url(#clip0_21_27)">
<path d="M35.2806 39.2373H36.3717C36.7432 39.2373 37.0277 39.369 37.2318 39.6291C37.4126 39.8662 37.5063 40.1691 37.5063 40.5379C37.5063 40.8243 37.4527 41.0811 37.3456 41.3116C37.1549 41.7199 36.8302 41.9207 36.3683 41.9207H35.2806V39.2373ZM36.2981 41.6112C36.4219 41.6112 36.5223 41.5981 36.5993 41.5717C36.7398 41.5256 36.8536 41.4334 36.944 41.2985C37.0143 41.1898 37.0678 41.0515 37.098 40.8803C37.1147 40.7782 37.1247 40.686 37.1247 40.6004C37.1247 40.2679 37.0578 40.0111 36.9273 39.8267C36.7967 39.6423 36.5859 39.5501 36.2914 39.5501H35.6488V41.6112H36.2981Z" fill="white"/>
<path d="M39.8257 39.2373V40.8968C39.8257 41.091 39.8625 41.2524 39.9395 41.3841C40.0499 41.5783 40.2374 41.6771 40.5018 41.6771C40.8164 41.6771 41.0306 41.5717 41.1444 41.361C41.2046 41.2458 41.2347 41.091 41.2347 40.9001V39.2406H41.6096V40.7486C41.6096 41.0778 41.5627 41.3314 41.4724 41.5092C41.305 41.8318 40.9904 41.9965 40.5285 41.9965C40.0667 41.9965 39.7521 41.8351 39.5881 41.5092C39.4977 41.3314 39.4508 41.0778 39.4508 40.7486V39.2406H39.8257V39.2373Z" fill="white"/>
<path d="M43.5374 39.2373H44.0662L44.8494 41.5059L45.6292 39.2373H46.1547V41.9207H45.7999V40.337C45.7999 40.281 45.7999 40.1922 45.8033 40.0637C45.8066 39.9386 45.8066 39.8003 45.8066 39.6555L45.0268 41.9207H44.662L43.8754 39.6555V39.7378C43.8754 39.8036 43.8788 39.9024 43.8821 40.0374C43.8855 40.1724 43.8888 40.2712 43.8888 40.3337V41.9175H43.5374V39.2373Z" fill="white"/>
<path d="M48.0725 39.2373H49.2506C49.5719 39.2373 49.7995 39.3295 49.9367 39.5172C50.017 39.6291 50.0572 39.7575 50.0572 39.9024C50.0572 40.0703 50.007 40.2119 49.9099 40.3206C49.8597 40.3765 49.7861 40.4292 49.689 40.4786C49.8296 40.5313 49.9333 40.5905 50.0036 40.6564C50.1275 40.7749 50.1877 40.9363 50.1877 41.1404C50.1877 41.3149 50.1308 41.4697 50.0204 41.6112C49.8564 41.822 49.5919 41.924 49.2305 41.924H48.0691V39.2373H48.0725ZM49.1133 40.3699C49.2706 40.3699 49.3945 40.3502 49.4815 40.3074C49.6187 40.2415 49.689 40.1197 49.689 39.9452C49.689 39.7707 49.6154 39.6522 49.4681 39.5896C49.3844 39.5567 49.264 39.5369 49.1 39.5369H48.4339V40.3699H49.1133ZM49.2372 41.6112C49.4648 41.6112 49.6288 41.5454 49.7258 41.417C49.7861 41.3347 49.8162 41.2359 49.8162 41.1207C49.8162 40.9264 49.7258 40.7914 49.5484 40.7223C49.4547 40.686 49.3275 40.6663 49.1702 40.6663H48.4306V41.6112H49.2372Z" fill="white"/>
<path d="M54.3077 39.6194C54.4885 39.8565 54.5788 40.1594 54.5788 40.5315C54.5788 40.9331 54.4751 41.2657 54.2676 41.5324C54.0232 41.8452 53.6785 41.9999 53.23 41.9999C52.8083 41.9999 52.4803 41.8649 52.2393 41.5917C52.0251 41.3283 51.918 40.9957 51.918 40.594C51.918 40.2318 52.0084 39.919 52.1925 39.6622C52.4268 39.3297 52.7749 39.165 53.2367 39.165C53.7187 39.165 54.0768 39.3165 54.3077 39.6194ZM53.9797 41.3315C54.1237 41.1011 54.1973 40.8377 54.1973 40.538C54.1973 40.222 54.1136 39.9684 53.9463 39.7742C53.7789 39.5799 53.548 39.4844 53.2568 39.4844C52.9757 39.4844 52.7447 39.5799 52.564 39.7709C52.3866 39.9618 52.2962 40.2417 52.2962 40.6138C52.2962 40.9101 52.3732 41.1636 52.5272 41.3678C52.6811 41.5719 52.9288 41.674 53.2702 41.674C53.6015 41.6773 53.8358 41.562 53.9797 41.3315Z" fill="white"/>
<path d="M8.43175 33.7392V22.416H12.5886C13.2613 22.416 13.8336 22.4852 14.3156 22.6202C14.7942 22.7552 15.1858 22.9494 15.4904 23.2029C15.7949 23.4532 16.0158 23.7561 16.153 24.1084C16.2903 24.4607 16.3606 24.8459 16.3606 25.2641C16.3606 25.6625 16.307 26.0049 16.1999 26.2947C16.0928 26.5844 15.9556 26.8248 15.7849 27.019C15.6142 27.2133 15.4201 27.3647 15.2025 27.4734C14.985 27.5821 14.7574 27.6611 14.5231 27.7006V27.7335C15.323 27.8488 15.9154 28.1583 16.3037 28.662C16.6919 29.1658 16.886 29.7947 16.886 30.5487C16.886 31.1347 16.7923 31.6319 16.6049 32.0435C16.4175 32.4518 16.1597 32.781 15.8284 33.0345C15.4971 33.2848 15.1021 33.4659 14.6369 33.5778C14.175 33.6865 13.6696 33.7425 13.1275 33.7425H8.43175V33.7392ZM9.51949 27.4174H12.2673C12.8329 27.4174 13.3048 27.3713 13.6897 27.2758C14.0746 27.1804 14.3825 27.0421 14.6168 26.8577C14.8511 26.6733 15.0185 26.4494 15.1189 26.1827C15.2193 25.916 15.2695 25.6098 15.2695 25.2641C15.2695 24.9085 15.2092 24.6056 15.0921 24.3586C14.9749 24.1117 14.7875 23.9141 14.5331 23.7627C14.2788 23.6112 13.9441 23.4993 13.5358 23.4334C13.1241 23.3643 12.6221 23.3313 12.0263 23.3313H9.51614V27.4174H9.51949ZM9.51949 32.8271H12.284C12.8798 32.8271 13.3985 32.8008 13.8437 32.7481C14.2855 32.6954 14.6503 32.5868 14.9381 32.4254C15.226 32.2641 15.4402 32.0336 15.5841 31.734C15.728 31.4344 15.7983 31.0393 15.7983 30.5454C15.7983 30.0745 15.718 29.6926 15.5573 29.4061C15.3967 29.1164 15.1691 28.8958 14.8712 28.7377C14.5733 28.5797 14.2152 28.4743 13.8002 28.4151C13.3852 28.3591 12.9199 28.3295 12.4112 28.3295H9.51949V32.8271Z" fill="white"/>
<path d="M19.3627 33.7385H18.4022V25.5927H19.3627V27.1171H19.3962C19.664 26.4685 20.0053 26.0141 20.4271 25.7573C20.8488 25.5005 21.4043 25.3721 22.0972 25.3721V26.3928C21.555 26.3829 21.1065 26.4652 20.755 26.643C20.4036 26.8208 20.1225 27.0612 19.915 27.3674C19.7075 27.6703 19.5636 28.0292 19.4832 28.444C19.4029 28.8589 19.3627 29.2902 19.3627 29.7413V33.7385Z" fill="white"/>
<path d="M24.189 25.5928H23.2318V33.7353H24.189V25.5928Z" fill="white"/>
<path d="M41.6096 25.5927H42.5702V32.9516C42.5702 33.4981 42.5133 34.0184 42.4028 34.5155C42.2924 35.0127 42.0915 35.4506 41.8037 35.8293C41.5159 36.2079 41.1209 36.5075 40.6223 36.7347C40.1202 36.9586 39.4776 37.0739 38.6877 37.0739C38.082 37.0739 37.5598 36.9981 37.1214 36.8467C36.6829 36.6952 36.3282 36.5042 36.0504 36.2738C35.7726 36.0433 35.5617 35.7898 35.4178 35.5099C35.2739 35.2333 35.1969 34.9732 35.1869 34.7328H36.211C36.2847 35.0358 36.4018 35.286 36.5625 35.4803C36.7231 35.6745 36.9105 35.826 37.1281 35.9346C37.3456 36.0433 37.59 36.119 37.8544 36.1618C38.1221 36.2046 38.3966 36.2244 38.6844 36.2244C39.3337 36.2244 39.8558 36.1157 40.2507 35.8951C40.6457 35.6745 40.9436 35.3881 41.1444 35.0292C41.3452 34.6736 41.4757 34.2686 41.536 33.8175C41.5929 33.3664 41.6196 32.9055 41.6062 32.4346C41.2983 32.9384 40.8733 33.317 40.3344 33.5739C39.7956 33.8307 39.2333 33.9591 38.6476 33.9591C38.0184 33.9591 37.4728 33.8406 37.0109 33.6068C36.5491 33.3697 36.1642 33.0569 35.8596 32.6618C35.555 32.27 35.3308 31.809 35.1802 31.2855C35.0296 30.762 34.9559 30.2154 34.9559 29.6491C34.9559 29.0532 35.0262 28.4901 35.1635 27.9666C35.3007 27.4431 35.5216 26.9887 35.8261 26.6068C36.1307 26.2248 36.5156 25.9219 36.9842 25.7013C37.4527 25.4807 38.0217 25.3721 38.6944 25.3721C38.9622 25.3721 39.2333 25.4083 39.5111 25.4807C39.7889 25.5532 40.0566 25.6585 40.3177 25.7968C40.5787 25.9318 40.8197 26.1063 41.0373 26.317C41.2548 26.5278 41.4355 26.7615 41.5728 27.0249H41.6062V25.5927H41.6096ZM41.6096 29.6952C41.6096 29.2013 41.5493 28.7437 41.4255 28.3189C41.3017 27.8942 41.1243 27.5287 40.89 27.2192C40.6557 26.9097 40.3612 26.666 40.0098 26.4883C39.6583 26.3105 39.2601 26.2216 38.8116 26.2216C38.4066 26.2216 38.0351 26.2907 37.6937 26.4323C37.3523 26.5739 37.0545 26.7813 36.8001 27.0546C36.5457 27.3279 36.3449 27.6604 36.201 28.0522C36.0571 28.444 35.9868 28.8984 35.9868 29.4121C35.9667 29.9257 36.0069 30.4064 36.114 30.8509C36.2211 31.2954 36.3918 31.6872 36.6261 32.0231C36.8603 32.3589 37.1582 32.6223 37.5197 32.8166C37.8811 33.0108 38.3129 33.1063 38.8149 33.1063C39.25 33.1063 39.645 33.0141 39.9897 32.8297C40.3344 32.6454 40.6289 32.4017 40.8699 32.0922C41.1109 31.7827 41.295 31.4205 41.4222 31.0089C41.546 30.5941 41.6096 30.1562 41.6096 29.6952Z" fill="white"/>
<path d="M44.9799 29.8865C44.9799 30.3277 45.0368 30.7426 45.1573 31.1377C45.2744 31.5295 45.4485 31.872 45.6761 32.1584C45.9037 32.4482 46.1948 32.6786 46.5463 32.8499C46.8977 33.0244 47.3027 33.11 47.7612 33.11C48.3904 33.11 48.9259 32.9486 49.3744 32.6227C49.8229 32.2967 50.1208 31.8357 50.268 31.2398H51.339C51.2219 31.6283 51.0679 31.9872 50.8772 32.3165C50.6864 32.6457 50.4454 32.9355 50.1576 33.1824C49.8697 33.4293 49.5284 33.6203 49.1334 33.7553C48.7385 33.8903 48.28 33.9595 47.7578 33.9595C47.0952 33.9595 46.5262 33.8508 46.0476 33.6302C45.569 33.4096 45.174 33.11 44.8661 32.7247C44.5582 32.3428 44.3273 31.8917 44.18 31.3715C44.0294 30.8513 43.9558 30.2948 43.9558 29.6956C43.9558 29.0996 44.0428 28.5366 44.2202 28.0131C44.3976 27.4896 44.6452 27.0319 44.9699 26.6368C45.2945 26.245 45.6928 25.9355 46.1614 25.7083C46.6299 25.4844 47.1621 25.3691 47.7612 25.3691C48.9025 25.3691 49.7961 25.7544 50.4454 26.5248C51.0947 27.2953 51.416 28.4148 51.406 29.88H44.9799V29.8865ZM50.3852 29.0996C50.3852 28.7012 50.3283 28.3259 50.2178 27.9769C50.1074 27.6246 49.94 27.3216 49.7225 27.0648C49.5049 26.808 49.2305 26.6039 48.8991 26.4524C48.5678 26.3009 48.1896 26.2252 47.7645 26.2252C47.3395 26.2252 46.9613 26.3042 46.6366 26.4623C46.312 26.6203 46.0342 26.8277 45.8066 27.0912C45.579 27.3546 45.3949 27.6575 45.2544 28.0032C45.1171 28.3489 45.0234 28.7177 44.9833 29.1029H50.3852V29.0996Z" fill="white"/>
<path d="M51.8043 25.5928H52.8418L55.526 32.573L58.2102 25.5928H59.2478L56.0347 33.7353H54.9637L51.8043 25.5928Z" fill="white"/>
<path d="M60.1815 23.8154V22.416H61.2358V23.8154H60.1815ZM60.2284 33.7392V25.5933H61.189V33.7359H60.2284V33.7392Z" fill="white"/>
<path d="M63.6322 29.8865C63.6322 30.3277 63.6891 30.7426 63.8096 31.1377C63.9267 31.5295 64.1008 31.872 64.3284 32.1584C64.5559 32.4482 64.8471 32.6786 65.1985 32.8499C65.55 33.0244 65.9549 33.11 66.4135 33.11C67.0427 33.11 67.5815 32.9486 68.0267 32.6227C68.4752 32.2967 68.773 31.8357 68.9203 31.2398H69.9913C69.8742 31.6283 69.7202 31.9872 69.5294 32.3165C69.3387 32.6457 69.0977 32.9355 68.8099 33.1824C68.522 33.4293 68.1806 33.6203 67.7857 33.7553C67.3908 33.8903 66.9322 33.9595 66.4101 33.9595C65.7508 33.9595 65.1785 33.8508 64.6999 33.6302C64.2213 33.4096 63.8263 33.11 63.5184 32.7247C63.2105 32.3428 62.9796 31.8917 62.8323 31.3715C62.6817 30.8513 62.608 30.2948 62.608 29.6956C62.608 29.0996 62.6951 28.5366 62.8725 28.0131C63.0465 27.4896 63.2975 27.0319 63.6222 26.6368C63.9468 26.245 64.3451 25.9355 64.8137 25.7083C65.2822 25.4844 65.8144 25.3691 66.4135 25.3691C67.5548 25.3691 68.4484 25.7544 69.0977 26.5248C69.747 27.2953 70.0683 28.4148 70.0582 29.88H63.6322V29.8865ZM69.0341 29.0996C69.0341 28.7012 68.9772 28.3259 68.8668 27.9769C68.7563 27.6246 68.589 27.3216 68.3714 27.0648C68.1539 26.808 67.8794 26.6039 67.5481 26.4524C67.2167 26.3009 66.8385 26.2252 66.4135 26.2252C65.9884 26.2252 65.6102 26.3042 65.2856 26.4623C64.9609 26.6203 64.6831 26.8277 64.4555 27.0912C64.2279 27.3546 64.0439 27.6575 63.9033 28.0032C63.7661 28.3489 63.6757 28.7177 63.6322 29.1029H69.0341V29.0996Z" fill="white"/>
<path d="M78.3351 32.4814L80.5073 25.5967H81.4812L78.797 33.7392H77.7729L75.9655 26.9005H75.9321L74.0946 33.7392H72.9433L70.4197 25.5967H71.3803L73.5223 32.5473L75.4401 25.5967H76.5111L78.3351 32.4814Z" fill="white"/>
<path d="M8.0502 20.3317C8.22424 20.3119 17.291 19.2419 31.3011 19.1562V20.1506C17.3713 20.2329 8.35142 21.2964 8.17404 21.3195L8.0502 20.3317Z" fill="white"/>
<path d="M82.0502 23.4927L81.8628 24.4673C63.3142 21.0003 45.7597 20.1146 32.4357 20.1409V19.1498C45.8133 19.1268 63.4314 20.0125 82.0502 23.4927Z" fill="white"/>
<path d="M23.1815 14V23.8151H24.2358V19.4755C24.2325 19.4064 24.2291 19.3373 24.2291 19.2681C24.2291 19.2121 24.2291 19.1529 24.2358 19.0969C24.2325 19.0837 24.2325 19.0738 24.2358 19.0607C24.3429 16.9238 26.1402 15.2314 28.3358 15.2314C30.5414 15.2314 32.342 16.9436 32.4324 19.0936H32.4391V26.897C32.1278 26.3932 31.7061 26.0146 31.1706 25.7578C30.6318 25.5042 30.0695 25.3725 29.4838 25.3725C28.8545 25.3725 28.309 25.4911 27.8438 25.7281C27.3819 25.9619 26.997 26.278 26.6958 26.6698C26.3912 27.0649 26.1636 27.5259 26.0164 28.0494C25.8691 28.5729 25.7955 29.1162 25.7955 29.6825C25.7955 30.2817 25.8624 30.8415 25.9996 31.365C26.1369 31.8885 26.3611 32.3429 26.6623 32.7281C26.9669 33.1101 27.3518 33.4097 27.8204 33.6303C28.2923 33.8509 28.8612 33.9628 29.5306 33.9628C29.795 33.9628 30.0695 33.9266 30.3439 33.8542C30.6217 33.7817 30.8895 33.6764 31.1505 33.5381C31.4082 33.4031 31.6526 33.2286 31.8668 33.0278C32.0843 32.8236 32.265 32.5833 32.4023 32.3133H32.4357V33.7455H33.3963V14H23.1815ZM32.2517 31.0094C32.1312 31.4341 31.9504 31.7996 31.7161 32.1124C31.4852 32.4219 31.1907 32.6623 30.8359 32.8401C30.4845 33.0179 30.0862 33.1101 29.6377 33.1101C29.2327 33.1101 28.8612 33.0409 28.5199 32.8993C28.1785 32.7578 27.8806 32.5503 27.6229 32.277C27.3685 32.0071 27.1677 31.6745 27.0238 31.2794C26.8832 30.8843 26.8096 30.4332 26.8096 29.9163C26.7895 29.4059 26.833 28.9252 26.9368 28.4774C27.0439 28.0329 27.2179 27.6411 27.4488 27.3086C27.6831 26.9694 27.981 26.7093 28.3458 26.5118C28.7106 26.3208 29.139 26.2187 29.6377 26.2187C30.0762 26.2187 30.4678 26.3109 30.8125 26.4953C31.1606 26.6797 31.4517 26.9266 31.6927 27.2328C31.9304 27.5456 32.1178 27.9045 32.245 28.3194C32.3721 28.7342 32.4357 29.1722 32.4357 29.6298C32.4357 30.127 32.3755 30.5847 32.2517 31.0094Z" fill="white"/>
<path d="M33.3963 40.6143H8.0502V40.8744H33.3963V40.6143Z" fill="white"/>
<path d="M81.2369 40.6143H55.8908V40.8744H81.2369V40.6143Z" fill="white"/>
</g>
<defs>
<clipPath id="clip0_21_27">
<rect width="74" height="28" fill="white" transform="translate(8 14)"/>
</clipPath>
</defs>
</svg>
