<svg width="965" height="922" viewBox="0 0 965 922" fill="none" xmlns="http://www.w3.org/2000/svg">
<g clip-path="url(#clip0_3084_126)">
<path d="M110.65 752.84H72.93V767.77H107.57V780.37H72.93V798.72H112.32V811.33H58.39V740.26H110.65V752.84ZM158.34 792L165.47 798.71C163.038 799.968 160.338 800.62 157.6 800.61H157.45C149.45 800.61 138.14 795.67 138.14 775.78C138.14 755.89 149.43 751 157.45 751C165.47 751 176.74 755.94 176.74 775.83C176.74 782.49 175.46 787.41 173.48 791.09L166 784L158.38 792H158.34ZM191.9 808.41L184.16 801.13C188.51 795.58 191.59 787.47 191.59 775.78C191.59 742.44 166.85 738.39 157.44 738.39C148.03 738.39 123.31 742.44 123.31 775.78C123.31 809.12 148.05 813.19 157.44 813.19C163.821 813.208 170.097 811.564 175.65 808.42L184.08 816.42L191.9 808.37V808.41ZM261.47 786.48C261.47 805.16 250.17 813.18 232.25 813.18C225.73 813.18 216.03 811.61 209.7 804.58C205.84 800.26 204.35 794.47 204.16 787.36V740.26H219.3V786.37C219.3 796.29 225.04 800.62 231.95 800.62C242.16 800.62 246.3 795.68 246.3 787.07V740.26H261.47V786.49V786.48ZM301.23 756.29H301.45L310.24 784.4H292.1L301.23 756.29ZM288.14 796.63H314.38L318.94 811.33H335.07L310.07 740.25H292.92L267.58 811.33H283.22L288.14 796.63ZM361.49 798.46H396.82V811.32H346.63V740.26H361.49V798.47V798.46ZM453.11 779.46V811.35H438.29V740.26H453.11V767.18H480.83V740.26H495.66V811.33H480.83V779.44L453.11 779.46ZM524 775.79C524 755.9 535.3 750.96 543.29 750.96C551.28 750.96 562.61 755.9 562.61 775.79C562.61 795.68 551.32 800.62 543.29 800.62C535.26 800.62 524 795.68 524 775.79ZM509.18 775.79C509.18 809.15 533.93 813.19 543.29 813.19C552.65 813.19 577.46 809.19 577.46 775.79C577.46 742.39 552.74 738.39 543.29 738.39C533.84 738.39 509.13 742.44 509.13 775.79H509.18ZM648.33 786.49C648.33 805.17 637.03 813.19 619.11 813.19C612.58 813.19 602.9 811.62 596.54 804.59C592.69 800.27 591.2 794.48 591.02 787.37V740.26H606.14V786.37C606.14 796.29 611.9 800.62 618.85 800.62C629.03 800.62 633.18 795.68 633.18 787.07V740.26H648.33V786.49ZM675.49 789.49C675.62 793.44 677.62 800.98 690.57 800.98C697.57 800.98 705.42 799.3 705.42 791.75C705.42 786.23 700.07 784.75 692.56 782.96L684.93 781.17C673.41 778.5 662.34 775.97 662.34 760.33C662.34 752.4 666.63 738.44 689.68 738.44C711.47 738.44 717.29 752.68 717.4 761.44H703.08C702.7 758.3 701.5 750.75 688.54 750.75C682.91 750.75 676.18 752.83 676.18 759.26C676.18 764.84 680.73 765.98 683.67 766.68L701 770.83C710.7 773.22 719.59 777.18 719.59 789.93C719.59 811.34 697.83 813.2 691.59 813.2C665.68 813.2 661.23 798.2 661.23 789.44L675.49 789.49ZM746.66 811.38H731.86V740.26H746.66V811.38ZM805.97 740.31H819.81V811.38H804.93L775.93 760.69H775.68V811.38H761.86V740.26H777.5L805.67 789.75H805.92V740.26L805.97 740.31ZM869.44 773H899.11V811.31H889.23L887.75 802.41C883.99 806.72 878.55 813.17 865.57 813.17C848.46 813.17 832.94 800.9 832.94 775.97C832.94 756.59 843.73 738.26 867.65 738.37C889.45 738.37 898.07 752.5 898.81 762.37H884C884 759.59 878.93 750.66 868.46 750.66C857.99 750.66 848.06 757.98 848.06 776.18C848.06 795.59 858.65 800.63 868.74 800.63C872.01 800.63 882.93 799.36 885.97 784.99H869.44V773ZM70.08 883.75C70.08 863.86 81.35 858.89 89.36 858.89C97.37 858.89 108.65 863.89 108.65 883.75C108.65 903.61 97.38 908.61 89.36 908.61C81.34 908.61 70.08 903.63 70.08 883.75ZM55.23 883.75C55.23 917.08 79.97 921.19 89.37 921.19C98.77 921.19 123.5 917.09 123.5 883.75C123.5 850.41 98.76 846.35 89.37 846.35C79.98 846.35 55.23 850.41 55.23 883.75ZM164.17 881.36V860.46H176C185.2 860.46 189.07 863.36 189.07 870.29C189.07 873.46 189.07 881.36 177.97 881.36H164.17ZM164.17 893.65H181.17C200.28 893.65 203.83 877.4 203.83 870.98C203.83 857.04 195.54 848.22 181.77 848.22H149.34V919.29H164.17V893.65ZM244.17 881.36V860.46H255.92C265.13 860.46 268.99 863.36 268.99 870.29C268.99 873.46 268.99 881.36 257.93 881.36H244.17ZM244.17 893.65H261.17C280.26 893.65 283.84 877.4 283.84 870.98C283.84 857.04 275.53 848.22 261.77 848.22H229.28V919.29H244.13V893.65H244.17ZM320.97 883.75C320.97 863.86 332.23 858.89 340.27 858.89C348.31 858.89 359.56 863.89 359.56 883.75C359.56 903.61 348.26 908.61 340.27 908.61C332.28 908.61 320.93 903.63 320.93 883.75H320.97ZM306.13 883.75C306.13 917.08 330.85 921.19 340.27 921.19C349.69 921.19 374.38 917.09 374.38 883.75C374.38 850.41 349.65 846.35 340.27 846.35C330.89 846.35 306.09 850.41 306.09 883.75H306.13ZM414.79 879.49V860.49H433.27C441.99 860.49 443.65 866.07 443.65 869.82C443.65 876.82 439.91 879.52 432.18 879.52L414.79 879.49ZM400.16 919.3H414.75V891.48H430.06C441.06 891.48 441.66 895.23 441.66 904.93C441.66 912.23 442.22 915.93 443.21 919.3H459.66V917.38C456.49 916.2 456.49 913.62 456.49 903.27C456.49 889.97 453.32 887.81 447.49 885.27C454.49 882.91 458.49 876.17 458.49 868.36C458.49 862.21 455.04 848.27 436.14 848.27H400.16V919.3ZM513.76 919.3H498.93V860.8H477.46V848.22H535.25V860.8H513.76V919.3ZM614.91 894.42C614.91 913.12 603.63 921.19 585.7 921.19C579.21 921.19 569.51 919.54 563.16 912.53C559.3 908.19 557.81 902.44 557.64 895.33V848.22H572.76V894.32C572.76 904.22 578.5 908.61 585.43 908.61C595.62 908.61 599.76 903.61 599.76 895.02V848.21H614.92V894.42H614.91ZM686.74 848.22H700.62V919.3H685.75L656.75 868.6H656.59V919.3H642.71V848.22H658.34L686.57 897.69H686.74V848.22ZM742.5 919.3H727.61V848.22H742.5V919.3ZM800.5 919.3H785.61V860.8H764.17V848.22H821.94V860.8H800.45V919.3H800.5ZM878.1 919.3H863.18V892.46L838.67 848.22H856.17L870.91 879.11L885 848.22H901.8L878.05 892.64V919.3H878.1ZM478.44 0L0 235.64V346.33H53.55V678.33H899.73V346.33H964V235.64L478.44 0ZM796.2 578.37H157.09V274.92L478.44 110.69L796.21 274.92V578.37H796.2Z" fill="white"/>
<path d="M624.8 382H328.49V274.92H624.8V382ZM624.8 535.59H328.49V428.44H624.8V535.59Z" fill="white"/>
</g>
<defs>
<clipPath id="clip0_3084_126">
<rect width="964.03" height="921.19" fill="white"/>
</clipPath>
</defs>
</svg>
